<svg width="60" height="60" viewBox="0 0 60 60" xmlns="http://www.w3.org/2000/svg">
  <defs>
    <pattern id="grain" patternUnits="userSpaceOnUse" width="60" height="60">
      <rect width="60" height="60" fill="#ffffff" opacity="0.02"/>
      <circle cx="5" cy="7" r="0.5" fill="#000000" opacity="0.1"/>
      <circle cx="15" cy="3" r="0.3" fill="#000000" opacity="0.08"/>
      <circle cx="25" cy="12" r="0.4" fill="#000000" opacity="0.06"/>
      <circle cx="35" cy="8" r="0.2" fill="#000000" opacity="0.09"/>
      <circle cx="45" cy="15" r="0.6" fill="#000000" opacity="0.07"/>
      <circle cx="55" cy="5" r="0.3" fill="#000000" opacity="0.05"/>
      <circle cx="10" cy="25" r="0.4" fill="#000000" opacity="0.08"/>
      <circle cx="20" cy="30" r="0.2" fill="#000000" opacity="0.06"/>
      <circle cx="30" cy="22" r="0.5" fill="#000000" opacity="0.07"/>
      <circle cx="40" cy="28" r="0.3" fill="#000000" opacity="0.09"/>
      <circle cx="50" cy="35" r="0.4" fill="#000000" opacity="0.05"/>
      <circle cx="8" cy="45" r="0.3" fill="#000000" opacity="0.07"/>
      <circle cx="18" cy="42" r="0.5" fill="#000000" opacity="0.06"/>
      <circle cx="28" cy="48" r="0.2" fill="#000000" opacity="0.08"/>
      <circle cx="38" cy="45" r="0.4" fill="#000000" opacity="0.07"/>
      <circle cx="48" cy="50" r="0.3" fill="#000000" opacity="0.09"/>
      <circle cx="12" cy="55" r="0.6" fill="#000000" opacity="0.05"/>
      <circle cx="32" cy="58" r="0.2" fill="#000000" opacity="0.08"/>
      <circle cx="52" cy="53" r="0.4" fill="#000000" opacity="0.06"/>
    </pattern>
  </defs>
  <rect width="100%" height="100%" fill="url(#grain)"/>
</svg> 